<?xml version="1.0" encoding="iso-8859-1"?>
<!-- Generator: Adobe Illustrator 19.0.0, SVG Export Plug-In . SVG Version: 6.00 Build 0)  -->
<svg version="1.1" id="Layer_1" xmlns="http://www.w3.org/2000/svg" xmlns:xlink="http://www.w3.org/1999/xlink" x="0px" y="0px"
	 viewBox="0 0 512 512" style="enable-background:new 0 0 512 512;" xml:space="preserve">
<path style="fill:#C2FB3B;" d="M488.727,0H256H23.273C10.42,0,0,10.418,0,23.273v465.455C0,501.58,10.42,512,23.273,512H256h232.727
	C501.58,512,512,501.58,512,488.727V23.273C512,10.418,501.58,0,488.727,0z"/>
<path style="fill:#9CDD05;" d="M201.675,377.665c-4.364,4.364-10.283,6.816-16.455,6.816c-6.173,0-12.093-2.453-16.457-6.816
	l-68.856-68.858c-9.089-9.089-9.089-23.824,0-32.912c9.087-9.089,23.824-9.087,32.912,0l52.401,52.401l70.78-70.78V0H23.273
	C10.42,0,0,10.418,0,23.273v465.455C0,501.58,10.42,512,23.273,512H256V323.34L201.675,377.665z"/>
<path style="fill:#64C37D;" d="M412.092,134.333c-9.087-9.089-23.824-9.087-32.912,0L256,257.516l-70.78,70.782l-52.401-52.401
	c-9.087-9.087-23.824-9.089-32.912,0s-9.089,23.823,0,32.912l68.856,68.858c4.364,4.364,10.283,6.816,16.457,6.816
	c6.172,0,12.092-2.453,16.455-6.816L256,323.34l156.092-156.093C421.182,158.158,421.182,143.422,412.092,134.333z"/>
<g>
</g>
<g>
</g>
<g>
</g>
<g>
</g>
<g>
</g>
<g>
</g>
<g>
</g>
<g>
</g>
<g>
</g>
<g>
</g>
<g>
</g>
<g>
</g>
<g>
</g>
<g>
</g>
<g>
</g>
</svg>
